<svg version="1.2" xmlns="http://www.w3.org/2000/svg" viewBox="0 0 945 336" width="945" height="336">
	<title>New Project</title>
	<style>
		.s0 { fill: #000000 } 
		.s1 { fill: #d32935 } 
	</style>
	<path id="Kitted." class="s0" aria-label="Kitted."  d="m127.5 327l-48.3-88.2-7.9 14.5v73.7h-64.4v-225.5h64.4v75.8l50.9-75.8h77.9l-76.6 96.7 79.5 128.8zm138.6-0.8h-58.1v-152.6h58.1zm0.2-195.9c0 16.2-12.9 29.2-29.1 29.2-16.2 0-29.2-13-29.2-29.2 0-15.9 13-29.1 29.2-29.1 16.2 0 29.1 13.2 29.1 29.1zm17.8-6.9v50.1h-19.1v52h19.1v45.8c0 0-1.1 56.5 56.7 55.7 43.5-0.6 56.5-25.7 56.5-25.7l-22-41.7c0 0-6.9 17.5-21.5 17.5-14.6 0-12.5-8.4-12.5-18 0-9.5 0-33.6 0-33.6h40.6v-52h-39.8v-50.1zm113.7 0v50.1h-19.1v52h19.1v45.8c0 0-1 56.5 56.7 55.7 43.5-0.6 56.5-25.7 56.5-25.7l-22-41.6c0 0-6.9 17.4-21.5 17.4-14.6 0-12.4-8.4-12.4-18 0-9.5 0-33.6 0-33.6h40.5v-52h-39.7v-50.1zm176.4 203.6c-22.2 0-41.3-7.2-55.6-21-15.1-14-22.3-32.8-22.3-56.2 0-23.3 7.5-42.1 22.6-55.9 15.1-13.7 32.8-20.9 53-20.9 20.4 0 38.1 6.6 52.2 18.8 14.5 12.7 21.7 29.7 21.7 51.2v26.5h-36.3l27.5 29.6-3.9 4c-16.7 15.6-36.6 23.9-58.9 23.9zm-26.7-57.5c1.8 3.1 4.2 5.8 7.4 7.9 5.8 4.2 12.2 6.1 19.3 6.1 12 0 21.5-3.7 29.2-11.7l2.4-2.3zm46.9-39c-1.3-3.7-3.2-6.4-5.8-9-4.3-3.2-9.6-5-15.9-5-6.1 0-12 1.8-17.5 5.8-3.2 2.1-5.6 5-6.9 8.2zm110 16.2c0 16.4 9.2 27 23 27 6.9 0 13.3-2.4 17.5-6.9 4.5-5 6.9-11.9 6.9-20.1 0-7.5-2.4-14.1-6.9-19.1-4.5-4.5-10.6-6.9-17.5-6.9-13.5 0-23 10.6-23 26zm-17 74.7c-8.2-3.7-16.2-9.5-22.3-16.4-6.1-6.9-10.8-15.4-14.5-24.9-3.5-9.6-4.8-20.2-4.8-31.6 0-11.4 1.3-22 4.8-31.5 3.7-9.6 8.2-17.8 14.3-24.7 12.2-14.3 29.6-22.2 48.2-22.2 7.9 0 15.6 1.6 22.5 4.7 4.3 1.9 10.9 6.1 14.1 9.3v-82.7h58.3v225.6h-58.3v-11.7c-9 7.4-19.6 11.7-33.7 11.7-10.1 0-19.6-1.9-28.6-5.6zm132.5-6.4c0-11.6 9.5-21.2 21.2-21.2 11.7 0 21.2 9.6 21.2 21.2 0 11.7-9.5 21.2-21.2 21.2-11.7 0-21.2-9.5-21.2-21.2z"/>
	<path id="Fill-1" fill-rule="evenodd" class="s1" d="m936.9 49.1c-0.2-0.8-0.9-1.5-1.7-1.6q0-0.1-0.1-0.1c-8.4-0.5-14.2 1.6-17.8 2.9-0.9 0.3-2 0.7-2.6 0.9-0.1-0.7 0-2.1 0.5-5.1 0.1-0.7-0.2-1.4-0.8-1.8q-0.4-0.4-1-0.4-0.4-0.1-0.9 0.2c-7.3 3.8-9.9 7.5-11.9 10.4-1.3 1.8-2.2 3.1-3.9 4.1-0.1-3.3 0.8-6.5 1.9-10 1.6-5.5 3.5-11.7 2.1-20.9-0.2-0.8-0.7-1.4-1.5-1.5q-0.1-0.1-0.3-0.1c-0.6 0-1.2 0.3-1.5 0.9-0.8 1.4-2 3.1-3.4 3.1-1.2 0-5.7-1.7-12.8-20.9-0.5-1.3-0.6-1.4-0.8-1.7-0.4-0.3-0.8-0.5-1.3-0.5-0.5 0-0.9 0.2-1.3 0.6-0.3 0.3-0.3 0.4-0.8 1.7-7.1 19.4-11.6 21.2-12.9 21.2-1.3 0.1-2.5-1.5-3.3-2.9-0.3-0.6-0.9-0.9-1.5-0.9q-0.2 0.1-0.3 0.1c-0.8 0.2-1.4 0.8-1.5 1.5-1.4 9.1 0.5 15.2 2.1 20.6 1.1 3.5 2 6.6 1.9 9.8-1.7-0.9-2.6-2.2-3.9-3.9-2-2.9-4.6-6.5-11.9-10.1q-0.5-0.2-0.9-0.2-0.6 0.1-1 0.4c-0.6 0.5-0.9 1.2-0.8 1.8 0.5 2.9 0.6 4.3 0.5 5-0.6-0.2-1.7-0.5-2.7-0.8-3.5-1.2-9.4-3.2-17.7-2.4q-0.1 0-0.1 0c-0.8 0.1-1.6 0.8-1.7 1.6-0.2 0.9 0.2 1.7 1.1 1.8 2.2 0.6 11.2 9.9 10.1 15-0.3 1.6-2.2 2.7-5.4 3.1q-0.7 0.1-1.5 0.2-0.1 0-0.1 0c-0.6 0.1-1.2 0.5-1.5 1-0.4 0.6-0.4 1.3 0 1.8 4.1 6.2 14.1 10.1 20.6 12.2-3.5 1.4-7.8 4-10.3 8.2-0.4 0.6-0.4 1.3 0 1.9 0.3 0.4 0.9 0.6 1.4 0.6q0.2-0.1 0.4-0.1 2.7-0.8 4.3-1.1c-0.4 0.5-0.9 1.1-1.3 1.6-2.3 3-5.6 7.2-5.1 11.3 0 0.4 0.3 0.9 0.7 1.1q0.5 0.3 1 0.2 0.2 0 0.4-0.1c5.2-1.7 9.7-3 12-3.2 0.6 0 0.9 0 1 0 0.1 0.6-0.3 2-2.1 5.7-0.4 0.7-0.3 1.5 0.3 1.9 0.3 0.4 0.8 0.5 1.2 0.5q0.4 0 0.7-0.2c6.9-3.5 11.1-7.2 14.6-10.1 4.1-3.6 7-6 12.2-6.2 0 5.9-1.5 21.5-15.8 29.9-0.6 0.4-1 1.1-0.9 1.8 0.1 0.7 0.6 1.2 1.3 1.4 1.8 0.4 3.1 1.1 3.6 1.8q0.1 0.3 0.1 0.7c0.1 0.6 0.4 1.1 0.9 1.4q0.4 0.2 0.9 0.2 0.4 0 0.8-0.2c1.6-0.9 5.6-3.5 9.1-9.5 4.1-7 6.1-16.2 6-27.5 5.3 0.3 8.2 2.8 12.4 6.5 3.4 3.1 7.7 6.9 14.5 10.6q0.4 0.2 0.8 0.3c0.4 0 0.9-0.1 1.2-0.4 0.5-0.5 0.7-1.3 0.3-2-1.8-3.9-2.2-5.3-2.1-5.9 0.1 0 0.4 0 1 0 2.3 0.3 6.8 1.7 12 3.6q0.2 0.1 0.4 0.1 0.5 0.1 1-0.2c0.4-0.2 0.6-0.7 0.7-1.2 0.5-4.1-2.8-8.5-5.2-11.6-0.4-0.5-0.8-1.2-1.2-1.7q1.5 0.3 4.3 1.2 0.2 0 0.3 0.1c0.6 0 1.2-0.2 1.5-0.6 0.4-0.6 0.4-1.4 0-2-2.5-4.3-6.8-7-10.3-8.5 6.4-2.1 16.5-6 20.6-12.5 0.4-0.6 0.3-1.3 0-1.9-0.3-0.6-0.9-1-1.5-1.1q0 0-0.1 0-0.8 0-1.5-0.1-4.9-0.7-5.4-3.2c-1.1-5.2 7.9-15 10.1-15.7 0.8-0.2 1.3-1 1.1-1.9z"/>
</svg>